<?xml version="1.0" encoding="UTF-8"?>
<svg version="1.1" xmlns="http://www.w3.org/2000/svg" width="1080" height="266">
<path d="M0 0 C0.75539062 0.59167969 1.51078125 1.18335937 2.2890625 1.79296875 C18.8922462 15.62895517 28.84446558 37.05601352 31.68359375 58.234375 C33.9231716 84.88811636 29.8692915 111.43723165 12.1796875 132.53125 C-5.94714728 153.06200194 -30.05120444 164.02671508 -57.3984375 165.90625 C-58.68621094 165.95265625 -58.68621094 165.95265625 -60 166 C-61.18851562 166.0515625 -62.37703125 166.103125 -63.6015625 166.15625 C-93.27989455 167.02313671 -122.56249214 159.4473017 -144.63427734 138.81933594 C-161.93153872 122.0386542 -169.73566459 99.11553897 -170.47290039 75.41210938 C-170.71214752 49.70274183 -163.43328398 25.49277351 -145.55859375 6.47265625 C-107.96015481 -29.86293436 -40.85908363 -32.32885389 0 0 Z " fill="#65B207" transform="translate(237,51)"/>
<path d="M0 0 C10.61699558 9.15311375 16.13943958 19.8774848 19.69140625 33.3203125 C19.95727539 34.24831665 19.95727539 34.24831665 20.22851562 35.19506836 C21.14339253 39.39549211 20.87607663 43.72660451 20.87890625 48.0078125 C20.89115234 48.96365234 20.90339844 49.91949219 20.91601562 50.90429688 C20.94936323 67.21127329 15.21410415 82.4664173 4.06640625 94.5078125 C-13.59762528 111.02131324 -35.04438161 112.9692932 -58.12451172 112.45654297 C-74.31738605 111.76373329 -90.63471654 104.49753088 -101.99609375 92.8828125 C-114.90385345 77.65768122 -118.6400368 59.49963216 -117.56298828 39.99121094 C-116.25946885 26.30550784 -109.42495539 11.68238402 -99.30859375 2.3203125 C-89.51224966 -5.70896952 -79.64127021 -10.8807822 -67.30859375 -13.6796875 C-66.49261719 -13.8859375 -65.67664063 -14.0921875 -64.8359375 -14.3046875 C-42.29882515 -19.32067541 -18.12145438 -14.3176028 0 0 Z " fill="#034C9F" transform="translate(216.30859375,72.6796875)"/>
<path d="M0 0 C0.84691406 0.32871094 1.69382812 0.65742187 2.56640625 0.99609375 C12.02453806 5.16922366 18.85894188 12.11039925 23.0703125 21.53515625 C27.38537275 32.97550505 27.01048738 44.48394185 23 56 C19.43236145 63.77562249 13.43139396 68.94651238 6 73 C6.56847656 73.14695312 7.13695312 73.29390625 7.72265625 73.4453125 C14.37998843 75.37916191 19.40623304 78.05022113 23.28515625 83.95703125 C28.32194225 93.39874838 27.92581969 103.92725616 25 114 C20.59048001 125.5233159 13.5884851 131.52711334 2.54296875 136.5546875 C-11.99763779 142.4863572 -28.42097914 141.12235868 -43 136 C-53.19409982 130.86779802 -60.62408278 122.16995355 -64.44140625 111.4296875 C-65.67920023 106.04571647 -65.73561613 100.49918449 -66 95 C-58.41 95 -50.82 95 -43 95 C-42.62875 96.835625 -42.2575 98.67125 -41.875 100.5625 C-40.41806417 106.28232214 -38.80212051 110.40629056 -34 114 C-26.39885424 118.11913942 -17.30031028 118.18904369 -9.125 115.8125 C-4.42698412 114.03078378 -1.53370874 111.30056311 1.25 107.125 C3.29410929 101.33335702 3.25932306 96.71905592 1.15234375 91.01953125 C-1.09761514 87.07638295 -4.64405908 85.69691603 -8.92382812 84.4309082 C-11.22222239 83.95387788 -13.43872351 83.75634101 -15.78125 83.60546875 C-32.19349669 82.42812789 -46.61422949 80.65550911 -58.13671875 67.57421875 C-65.93102523 57.06742826 -68.01499998 45.41622935 -66.76171875 32.5546875 C-64.93521443 21.07907451 -59.35269474 11.49945406 -50.09375 4.57421875 C-36.20314151 -4.7688691 -15.41740752 -6.17196055 0 0 Z M-37 24 C-41.594835 28.80369114 -43.61611395 32.67298756 -44.375 39.25 C-43.78733561 45.12664394 -42.35617451 50.55860216 -38.1640625 54.90234375 C-30.59961594 60.82927601 -23.43181108 61.75260269 -14 61 C-7.99775295 59.99505757 -3.86108427 57.9142392 -0.15625 53.015625 C3.43434482 46.75634484 3.55791961 39.91245003 2 33 C-0.21173118 26.73342831 -4.68255035 22.78631904 -10.4375 19.6875 C-19.92158545 17.14298927 -29.18491271 17.45713622 -37 24 Z " fill="#004A9F" transform="translate(783,73)"/>
<path d="M0 0 C3.66526855 2.61726512 5.94632621 5.03797778 8.1875 8.9375 C8.67605469 9.77152344 9.16460938 10.60554688 9.66796875 11.46484375 C10.96267331 13.92895887 12.0176686 16.39752013 13 19 C13.185625 18.18208984 13.185625 18.18208984 13.375 17.34765625 C15.50913394 9.54472905 19.70990674 3.70140805 26.60546875 -0.640625 C37.58756077 -6.28577718 50.49422879 -6.63932815 62.546875 -4.31640625 C71.72430692 -1.1924499 79.13529345 4.58420202 84 13 C87.36106363 20.54897039 89.1316111 27.72211528 89.11352539 36.00537109 C89.11344986 37.16612152 89.11337433 38.32687195 89.11329651 39.52279663 C89.10813522 40.76050812 89.10297394 41.9982196 89.09765625 43.2734375 C89.09553383 45.19175888 89.09553383 45.19175888 89.09336853 47.14883423 C89.08873022 50.53211336 89.07976081 53.91532386 89.06866455 57.29858398 C89.05839515 60.75764374 89.05385911 64.21671061 89.04882812 67.67578125 C89.03781609 74.4505421 89.02056018 81.22526167 89 88 C81.41 88 73.82 88 66 88 C65.9906543 86.3507251 65.98130859 84.7014502 65.97167969 83.00219727 C65.93167517 76.85739573 65.86588587 70.71308933 65.79248047 64.56860352 C65.762152 61.91385189 65.74308861 59.25970245 65.72900391 56.60473633 C65.70749103 52.77902996 65.660794 48.95431359 65.609375 45.12890625 C65.60753204 43.36118614 65.60753204 43.36118614 65.60565186 41.55775452 C65.48522987 34.71495031 64.86325402 28.81781201 61 23 C55.69764214 18.01806684 50.62868682 16.62391998 43.4453125 16.71875 C38.05657144 17.3385413 33.58976552 19.53574229 29.625 23.1875 C25.10564099 31.00946752 24.53936844 38.57539317 24.48828125 47.47265625 C24.46135445 49.21814003 24.46135445 49.21814003 24.43388367 50.99888611 C24.38004383 54.68672142 24.34596881 58.37442924 24.3125 62.0625 C24.27930378 64.57488743 24.24481201 67.08725809 24.20898438 69.59960938 C24.12191286 75.73308862 24.06161619 81.86600183 24 88 C16.41 88 8.82 88 1 88 C0.9906543 86.38101807 0.98130859 84.76203613 0.97167969 83.09399414 C0.93166963 77.06100414 0.86587888 71.02851816 0.79248047 64.99584961 C0.76433489 62.38979591 0.74308864 59.78365786 0.72900391 57.17749023 C0.70748654 53.42127498 0.66078745 49.66606709 0.609375 45.91015625 C0.60814636 44.75354996 0.60691772 43.59694366 0.60565186 42.4052887 C0.47275171 34.98836755 -0.33838783 28.21004193 -5.3760376 22.41786194 C-10.4511915 17.82890733 -15.9667695 16.49308912 -22.62890625 16.6953125 C-27.73877821 17.35193526 -32.22202337 18.93416048 -35.640625 22.90625 C-38.99593586 28.07420006 -40.10657315 32.35227068 -40.20532227 38.50292969 C-40.22526749 39.60376892 -40.24521271 40.70460815 -40.26576233 41.83880615 C-40.28247482 43.02121887 -40.29918732 44.20363159 -40.31640625 45.421875 C-40.33718735 46.63699768 -40.35796844 47.85212036 -40.37937927 49.10406494 C-40.44476828 52.98598573 -40.50371051 56.8679742 -40.5625 60.75 C-40.60569532 63.38151742 -40.64930994 66.01302799 -40.69335938 68.64453125 C-40.80043887 75.09628479 -40.90173659 81.54810641 -41 88 C-48.59 88 -56.18 88 -64 88 C-64.07471378 80.28110823 -64.1288673 72.56243165 -64.16479492 64.84326172 C-64.17978844 62.22278166 -64.20019002 59.60232629 -64.22631836 56.98193359 C-64.2631191 53.19362252 -64.27982142 49.40564607 -64.29296875 45.6171875 C-64.30845261 44.46451385 -64.32393646 43.31184021 -64.33988953 42.12423706 C-64.34258949 28.77767657 -62.26432198 15.21450756 -53.1484375 4.90625 C-39.86600762 -7.58240917 -15.40029003 -9.76980002 0 0 Z " fill="#004A9F" transform="translate(570,76)"/>
<path d="M0 0 C7.40354909 6.69926716 12.1746323 16.98003245 12.74609375 26.92578125 C12.76944826 28.49201393 12.77029313 30.05872467 12.75 31.625 C12.74242676 32.45169189 12.73485352 33.27838379 12.72705078 34.13012695 C12.41673702 45.73971228 8.81555314 54.73294035 0.65234375 62.9921875 C-8.66016586 71.51981589 -20.56400869 74.89568008 -33 74.75 C-34.37140137 74.73864014 -34.37140137 74.73864014 -35.77050781 74.72705078 C-47.18861736 74.45077367 -56.74890834 71.54766653 -65.6875 64.3125 C-66.31269531 63.82265625 -66.93789062 63.3328125 -67.58203125 62.828125 C-75.54430502 55.81993632 -79.16221975 45.42531119 -79.92578125 35.0859375 C-80.2115614 22.00021474 -76.9276776 11.03639636 -67.875 1.37890625 C-49.47239017 -15.87354047 -19.35979806 -15.02931692 0 0 Z " fill="#FDFDFE" transform="translate(211.6875,80.6875)"/>
<path d="M0 0 C0.84691406 0.32871094 1.69382812 0.65742187 2.56640625 0.99609375 C13.85957988 5.97888333 20.59751772 14.65801174 25 26 C27.46375187 33.71261456 27 40.74933906 27 49 C2.91 49 -21.18 49 -46 49 C-42.51128153 61.3444215 -42.51128153 61.3444215 -33.375 68.875 C-25.35871108 72.46686833 -17.60839915 72.98654263 -9.29296875 70.078125 C-2.77894405 67.01531271 -0.22738339 63.45476678 3 57 C10.92 57 18.84 57 27 57 C24.75710988 68.21445062 21.45052429 77.95185198 12 85 C-1.7889061 93.69255928 -17.28643506 95.80574931 -33.125 92.8125 C-45.12326685 89.95137483 -55.16799873 84.29712577 -62.11328125 73.80859375 C-69.46363848 60.67534677 -71.37912046 45.88711181 -68.3125 31.05859375 C-65.16278006 19.94270714 -58.49714878 9.80266603 -48.65234375 3.49609375 C-46.14420777 2.16451601 -43.63940282 1.04624977 -41 0 C-40.20335937 -0.3196875 -39.40671875 -0.639375 -38.5859375 -0.96875 C-26.73696646 -4.93063505 -11.58301238 -4.63695958 0 0 Z M-40 25 C-40.763125 25.86625 -41.52625 26.7325 -42.3125 27.625 C-44.28960357 29.92201262 -44.28960357 29.92201262 -44 33 C-28.82 33 -13.64 33 2 33 C0.90706066 27.53530329 -0.38164351 24.00543526 -4.90234375 20.54296875 C-16.32299115 13.16314632 -30.96857757 14.10916707 -40 25 Z " fill="#004A9F" transform="translate(948,73)"/>
<path d="M0 0 C13.07969704 11.93015051 23.14970654 28.81159673 24.00170898 46.78735352 C24.7099411 70.38229822 21.97003597 91.60294364 5.18676758 109.49584961 C-10.75978314 125.65680773 -31.71220363 132.7616683 -54.17114258 133.14404297 C-79.08784473 133.29151139 -101.10890228 128.12617373 -119.62963867 110.47631836 C-135.61487305 93.68374891 -139.95047283 73.57999254 -139.44213867 51.07006836 C-138.65505611 33.22085722 -130.78774086 15.4814963 -118.13745117 2.85131836 C-106.53238274 -7.51700556 -92.52205506 -14.72619407 -77.13745117 -17.14868164 C-75.29086914 -17.4696582 -75.29086914 -17.4696582 -73.40698242 -17.79711914 C-48.12738816 -21.83945596 -19.79369172 -17.03591894 0 0 Z M-110.13745117 13.85131836 C-111.1300293 14.62088867 -112.12260742 15.39045898 -113.14526367 16.18334961 C-120.43609442 22.32366869 -125.98707772 31.92526026 -129.13745117 40.85131836 C-129.43393555 41.58479492 -129.73041992 42.31827148 -130.03588867 43.07397461 C-135.71168416 59.50253861 -132.82886468 78.68253998 -125.51245117 93.97631836 C-117.90117172 108.92830084 -106.2267433 117.92098961 -90.63354492 123.84350586 C-68.30930987 130.27887194 -43.0420068 128.96269132 -22.46166992 117.95678711 C-8.55867039 109.1510095 0.12370871 96.59523347 4.86254883 80.85131836 C8.59383398 61.3683421 6.21428328 41.72808561 -4.95385742 25.15600586 C-14.32412032 12.77590095 -27.22304595 4.9018133 -42.13745117 0.85131836 C-42.83354492 0.64635742 -43.52963867 0.44139648 -44.24682617 0.23022461 C-66.31445164 -5.28668176 -92.3259137 0.03301268 -110.13745117 13.85131836 Z " fill="#D6A421" transform="translate(231.137451171875,58.148681640625)"/>
<path d="M0 0 C8.4412305 6.62009039 13.2345968 14.8133872 15.8125 25.125 C16.29914021 30.18605817 16.125 35.2905995 16.125 40.375 C-10.605 40.375 -37.335 40.375 -64.875 40.375 C-62.30775449 52.35547906 -60.39527306 60.65898033 -50.89453125 68.08984375 C-42.19483371 73.62601491 -32.98756742 74.45455513 -22.875 73.375 C-19.21460818 72.49690062 -16.1522299 71.21117845 -12.875 69.375 C-12.16859375 69.00890625 -11.4621875 68.6428125 -10.734375 68.265625 C-3.73875351 63.94008805 -1.05624912 56.63222455 2.125 49.375 C6.745 49.375 11.365 49.375 16.125 49.375 C14.39545281 61.30887564 9.33221182 71.62944785 -0.4375 78.9375 C-12.98557381 87.45756787 -27.52872864 88.91569047 -42.26953125 86.9140625 C-53.07349283 84.50688889 -63.14098903 79.33947452 -69.875 70.375 C-78.25300505 56.35094807 -81.38387884 42.36017032 -77.6875 26.0625 C-74.46584131 14.89907802 -69.12278553 5.49377278 -59.1875 -0.875 C-57.43635869 -1.82874661 -55.66470802 -2.74575391 -53.875 -3.625 C-53.05 -4.04007812 -52.225 -4.45515625 -51.375 -4.8828125 C-35.49353699 -11.48469974 -14.18216462 -9.44203413 0 0 Z M-56.69140625 15.40234375 C-61.33066937 21.29142136 -61.33066937 21.29142136 -62.875 28.375 C-41.425 28.375 -19.975 28.375 2.125 28.375 C-1.99138384 18.08404039 -4.82278801 12.299659 -14.4453125 7.375 C-28.57849886 1.55812587 -46.21205384 3.70603428 -56.69140625 15.40234375 Z " fill="#004A9F" transform="translate(366.875,78.625)"/>
<path d="M0 0 C4.62 0 9.24 0 14 0 C14.01458252 1.58345215 14.02916504 3.1669043 14.04418945 4.79833984 C14.10242123 10.70644034 14.1796527 16.61416961 14.26245117 22.52197266 C14.2955837 25.07269234 14.32365147 27.62348329 14.34643555 30.17431641 C14.38019609 33.85349729 14.43252414 37.53203198 14.48828125 41.2109375 C14.49467117 42.34050873 14.5010611 43.47007996 14.50764465 44.63388062 C14.69949165 55.10489062 16.41571388 64.33345481 24 72 C33.4205426 79.72175623 43.03400906 81.01491651 55 80 C58.63630716 79.10898434 61.73331824 77.8148232 65 76 C65.65613281 75.63777344 66.31226563 75.27554688 66.98828125 74.90234375 C73.14880415 71.01079288 76.63119988 65.2320202 78.56468201 58.27752686 C79.52119546 53.27317346 79.36471709 48.14483165 79.4140625 43.06640625 C79.43342865 41.83333237 79.4527948 40.60025848 79.4727478 39.32981873 C79.53232952 35.40744861 79.57884388 31.48504881 79.625 27.5625 C79.66213969 24.89645297 79.70225221 22.23046095 79.7421875 19.56445312 C79.83801372 13.04306736 79.92212419 6.52162383 80 0 C84.62 0 89.24 0 94 0 C94.07452414 7.77382343 94.12877928 15.54743581 94.16479492 23.3215332 C94.17981981 25.96252061 94.2002455 28.60348332 94.22631836 31.24438477 C94.26297878 35.05491251 94.27979006 38.86510844 94.29296875 42.67578125 C94.30845261 43.84393875 94.32393646 45.01209625 94.33988953 46.21565247 C94.34256013 59.41978841 91.06916815 71.87524854 81.9375 81.75 C70.8087921 92.21209645 57.94326076 94.60142277 43.23046875 94.25 C30.28912946 93.66980097 18.8082775 88.55159205 10 79 C0.9685606 66.86272624 -0.16805258 53.7148274 -0.09765625 39.0625 C-0.0962413 37.94182129 -0.09482635 36.82114258 -0.09336853 35.66650391 C-0.08780139 32.11097467 -0.07525498 28.55550998 -0.0625 25 C-0.05748075 22.579428 -0.05291859 20.158855 -0.04882812 17.73828125 C-0.03784272 11.82549622 -0.02060084 5.91275903 0 0 Z " fill="#004A9F" transform="translate(398,72)"/>
<path d="M0 0 C0 7.26 0 14.52 0 22 C-3.465 22.7734375 -3.465 22.7734375 -7 23.5625 C-14.37704846 25.41550269 -19.97709692 28.08644729 -24.10546875 34.796875 C-27.41715806 41.82449738 -27.19192396 49.49615577 -27.31640625 57.0859375 C-27.33718735 58.14285797 -27.35796844 59.19977844 -27.37937927 60.28872681 C-27.44453991 63.65075445 -27.50360361 67.01285737 -27.5625 70.375 C-27.60571708 72.6601639 -27.64933238 74.94532031 -27.69335938 77.23046875 C-27.80093298 82.8202366 -27.90025553 88.41006506 -28 94 C-35.59 94 -43.18 94 -51 94 C-51.06936419 87.15349791 -51.12894898 80.30824514 -51.16479492 73.46166992 C-51.17975889 71.13903644 -51.20013736 68.81643061 -51.22631836 66.49389648 C-51.45084888 46.04400849 -51.58798373 27.09076739 -36.72265625 11.33203125 C-25.87647549 2.04197399 -13.97980619 0 0 0 Z " fill="#004A9F" transform="translate(873,71)"/>
<path d="M0 0 C3.40393022 1.84379554 4.61222458 3.08200169 6.11080933 6.62966919 C7.15091865 10.57203227 7.26558086 14.25714362 7.22705078 18.30029297 C7.22734283 19.11071548 7.22763489 19.921138 7.22793579 20.75611877 C7.22654937 23.41825296 7.21102074 26.08010258 7.1953125 28.7421875 C7.19157992 30.59449104 7.18873411 32.44679656 7.18673706 34.29910278 C7.17911988 39.16200257 7.15948787 44.02478191 7.1373291 48.88763428 C7.11682937 53.85476045 7.10772653 58.82190617 7.09765625 63.7890625 C7.07624013 73.52610296 7.04107363 83.26302259 7 93 C-0.92 93 -8.84 93 -17 93 C-17.09041927 82.02101402 -17.16378424 71.0422759 -17.20724869 60.06300163 C-17.22811092 54.96471177 -17.25640383 49.86669017 -17.30175781 44.76855469 C-17.34526396 39.84725437 -17.36914737 34.92621185 -17.37950897 30.00473404 C-17.38689176 28.12845934 -17.40130873 26.25219854 -17.42292023 24.37603378 C-17.45201777 21.74500951 -17.45595338 19.11504637 -17.45410156 16.48388672 C-17.46848267 15.7106456 -17.48286377 14.93740448 -17.49768066 14.14073181 C-17.45813722 8.93805291 -16.31776469 5.98717941 -13 2 C-8.74842215 -0.83438524 -4.99040941 -0.637752 0 0 Z " fill="#004A9F" transform="translate(1006,72)"/>
<path d="M0 0 C2.82424288 2.19022918 4.41508603 3.83017207 6 7 C6.09316671 9.71579586 6.125777 12.40573898 6.11352539 15.12158203 C6.11367142 15.96068115 6.11381744 16.79978027 6.1139679 17.66430664 C6.11326968 20.44550131 6.10548155 23.22662949 6.09765625 26.0078125 C6.09579175 27.93309492 6.094368 29.85837782 6.09336853 31.78366089 C6.08954591 36.8570079 6.07971779 41.93032639 6.06866455 47.00366211 C6.05844495 52.17821873 6.05386973 57.35277995 6.04882812 62.52734375 C6.03809531 72.68491039 6.02050055 82.84244837 6 93 C-1.59 93 -9.18 93 -17 93 C-17.06778161 82.00373744 -17.12281954 71.00761367 -17.15543652 60.01118946 C-17.17109116 54.90508575 -17.19232588 49.79913241 -17.22631836 44.69311523 C-17.2589188 39.76534739 -17.27685453 34.83772416 -17.28463173 29.9098568 C-17.29017399 28.02998262 -17.30099666 26.15011633 -17.31719017 24.27030373 C-17.33897353 21.63681571 -17.34196655 19.00392497 -17.34057617 16.37036133 C-17.351362 15.59352493 -17.36214783 14.81668854 -17.3732605 14.01631165 C-17.34736 9.4813533 -16.76915888 6.62279204 -14 3 C-9.85011427 -0.9341952 -5.45806971 -0.97150108 0 0 Z " fill="#004B9F" transform="translate(696,72)"/>
<path d="M0 0 C2.77270108 2.20684371 4.42745556 3.85491112 6 7 C6.42567769 11.16672973 6.38103927 14.9045121 5 18.875 C2.09605195 21.9604448 -0.87052851 23.1741057 -5 24 C-9.92132749 24.14474493 -14.10773823 23.09091376 -18 20 C-20.57750405 15.76746704 -20.53505848 11.82415627 -20 7 C-18.60651777 3.22940102 -17.37629034 2.23038184 -13.9375 0.125 C-9.30391987 -1.58676845 -4.7125901 -1.3316456 0 0 Z " fill="#004B9F" transform="translate(1007,34)"/>
<path d="M0 0 C2.6764197 2.12955509 4.03554782 3.64961221 5.125 6.91796875 C5.4961875 11.92900003 5.24288946 14.90925374 2.125 18.91796875 C-0.9125463 22.18917245 -4.27077581 22.63824143 -8.55859375 22.984375 C-12.34795603 22.87574235 -14.58808053 21.82438205 -17.875 19.91796875 C-20.76635489 16.84378814 -21.30669841 14.66341198 -21.3125 10.48046875 C-21.20130381 6.85450614 -20.97583307 5.10800031 -19.25 1.85546875 C-13.75411715 -2.62801463 -6.29325018 -3.63172979 0 0 Z " fill="#004A9F" transform="translate(697.875,35.08203125)"/>
</svg>
